<svg width="196" height="186" viewBox="0 0 196 186" fill="none" xmlns="http://www.w3.org/2000/svg">
<path d="M104.564 8.83492C103.329 7.35529 101.501 6.5 99.5741 6.5C97.6468 6.5 95.8189 7.35528 94.5839 8.83492L62.5529 47.2113L10.5116 68.7774C8.70153 69.5275 7.3264 71.054 6.76879 72.9323C6.21118 74.8106 6.53058 76.8402 7.63814 78.4565L37.9815 122.736V173C37.9815 174.98 38.884 176.852 40.4331 178.085C41.9822 179.319 44.009 179.778 45.9387 179.335L99.53 167.007L149.978 179.315C151.916 179.788 153.964 179.344 155.533 178.112C157.102 176.88 158.019 174.995 158.019 173V122.736L188.362 78.4565C189.455 76.8608 189.781 74.861 189.251 73.0007C188.721 71.1403 187.39 69.6128 185.619 68.8333L136.643 47.2691L104.564 8.83492Z" fill="white" stroke="white" stroke-width="13" stroke-linejoin="round"/>
</svg>
