<svg width="128" height="128" viewBox="0 0 58 55" fill="none" xmlns="http://www.w3.org/2000/svg">
<path d="M30.9976 2.71749C30.6176 2.26278 30.0555 2 29.463 2C28.8704 2 28.3083 2.26278 27.9283 2.71749L18.5215 13.9738L3.23515 20.3005C2.67778 20.5312 2.2543 21.0012 2.08266 21.5795C1.91103 22.1578 2.00958 22.7826 2.35086 23.28L11.2593 36.2637V51C11.2593 51.6091 11.5369 52.1851 12.0134 52.5646C12.4899 52.944 13.1134 53.0856 13.7071 52.9492L29.4494 49.3324L44.2673 52.9431C44.8636 53.0885 45.4936 52.9519 45.9763 52.5727C46.4589 52.1936 46.7407 51.6138 46.7407 51V36.2637L55.6491 23.28C55.9861 22.7889 56.0866 22.1732 55.9234 21.6005C55.7603 21.0277 55.3503 20.5575 54.8051 20.3177L40.4193 13.9915L30.9976 2.71749Z" fill="white" stroke="white" stroke-width="4" stroke-linejoin="round"/>
</svg>
