<svg width="596" height="565" viewBox="0 0 596 565" fill="none" xmlns="http://www.w3.org/2000/svg">
<path d="M315.212 21.751C312.172 18.1067 307.672 16 302.926 16C298.18 16 293.679 18.1067 290.639 21.751L189.717 142.738L25.8716 210.676C21.4177 212.522 18.0341 216.279 16.6618 220.901C15.2894 225.524 16.0747 230.518 18.7991 234.496L114.519 374.261V533C114.519 537.874 116.74 542.483 120.554 545.518C124.368 548.554 129.357 549.686 134.107 548.592L302.817 509.76L461.687 548.544C466.458 549.708 471.5 548.617 475.363 545.584C479.226 542.551 481.481 537.911 481.481 533V374.261L577.201 234.496C579.891 230.569 580.692 225.648 579.387 221.07C578.082 216.492 574.807 212.733 570.451 210.813L416.254 142.88L315.212 21.751Z" fill="white" stroke="white" stroke-width="32" stroke-linejoin="round"/>
</svg>
